# xmcd CD database file
#
# Track frame offsets:
#	150
#	20392
#	40872
#	61117
#	81357
#
# Disc length: 1352 seconds
#
# Revision: 1
# Processed by: cddbd v1.5.1PL0 Copyright (c) Steve Scherf et al.
# Submitted via: CDex 1.40Beta9
#
DISCID=33054605
DTITLE=堀内孝雄with五木ひろし - ふたりで竜馬をやろうじゃないか
DYEAR=2005
DGENRE=Japanese Pop
TTITLE0=ふたりで竜馬をやろうじゃないか
TTITLE1=夢のかけら
TTITLE2=ふたりで竜馬をやろうじゃないかカラオケ１
TTITLE3=ふたりで竜馬をやろうじゃないかカラオケ２
TTITLE4=ふたりで竜馬をやろうじゃないかカラオケ３
EXTD=YEAR: 2005/04/20
EXTT0=
EXTT1=
EXTT2=
EXTT3=
EXTT4=
PLAYORDER=
